HIERARCHY
ROOT hip
{
  OFFSET 0 0 0
  CHANNELS 6 Xposition Yposition Zposition Zrotation Yrotation Xrotation
  JOINT abdomen
  {
    OFFSET 0 20.6881 -0.73152
    CHANNELS 3 Zrotation Xrotation Yrotation
    JOINT chest
    {
      OFFSET 0 11.7043 -0.48768
      CHANNELS 3 Zrotation Xrotation Yrotation
      JOINT neck
      {
        OFFSET 0 22.1894 -2.19456
        CHANNELS 3 Zrotation Xrotation Yrotation
        JOINT head
        {
          OFFSET -0.24384 7.07133 1.2192
          CHANNELS 3 Zrotation Xrotation Yrotation
          JOINT leftEye
          {
            OFFSET 4.14528 8.04674 8.04672
            CHANNELS 3 Zrotation Xrotation Yrotation
            End Site
            {
              OFFSET 1 0 0
            }
          }
          JOINT rightEye
          {
            OFFSET -3.6576 8.04674 8.04672
            CHANNELS 3 Zrotation Xrotation Yrotation
            End Site
            {
              OFFSET 1 0 0
            }
          }
        }
      }
      JOINT rCollar
      {
        OFFSET -2.68224 19.2634 -4.8768
        CHANNELS 3 Zrotation Xrotation Yrotation
        JOINT rShldr
        {
          OFFSET -8.77824 -1.95073 1.46304
          CHANNELS 3 Zrotation Xrotation Yrotation
          JOINT rForeArm
          {
            OFFSET -28.1742 -1.7115 0.48768
            CHANNELS 3 Zrotation Xrotation Yrotation
            JOINT rHand
            {
              OFFSET -22.5879 0.773209 7.07136
              CHANNELS 3 Zrotation Xrotation Yrotation
              JOINT rThumb1
              {
                OFFSET -1.2192 -0.487915 3.41376
                CHANNELS 3 Zrotation Xrotation Yrotation
                JOINT rThumb2
                {
                  OFFSET -3.37035 -0.52449 3.41376
                  CHANNELS 3 Zrotation Xrotation Yrotation
                  End Site
                  {
                    OFFSET -1.78271 -1.18214 1.43049
                  }
                }
              }
              JOINT rIndex1
              {
                OFFSET -7.75947 0.938293 5.60832
                CHANNELS 3 Zrotation Xrotation Yrotation
                JOINT rIndex2
                {
                  OFFSET -2.54057 -0.884171 1.56538
                  CHANNELS 3 Zrotation Xrotation Yrotation
                  End Site
                  {
                    OFFSET -1.62519 -0.234802 1.16502
                  }
                }
              }
              JOINT rMid1
              {
                OFFSET -8.24714 1.18213 3.41376
                CHANNELS 3 Zrotation Xrotation Yrotation
                JOINT rMid2
                {
                  OFFSET -3.10165 -0.590103 1.0647
                  CHANNELS 3 Zrotation Xrotation Yrotation
                  End Site
                  {
                    OFFSET -2.48547 -0.328903 0.83742
                  }
                }
              }
              JOINT rRing1
              {
                OFFSET -8.82822 0.546677 1.51678
                CHANNELS 3 Zrotation Xrotation Yrotation
                JOINT rRing2
                {
                  OFFSET -2.60934 -0.819778 -0.0198488
                  CHANNELS 3 Zrotation Xrotation Yrotation
                  End Site
                  {
                    OFFSET -2.33842 -0.294052 0.168128
                  }
                }
              }
              JOINT rPinky1
              {
                OFFSET -8.27202 -0.0477905 -0.4584
                CHANNELS 3 Zrotation Xrotation Yrotation
                JOINT rPinky2
                {
                  OFFSET -1.82734 -0.647385 -0.700984
                  CHANNELS 3 Zrotation Xrotation Yrotation
                  End Site
                  {
                    OFFSET -1.69225 -0.51767 -0.607171
                  }
                }
              }
            }
          }
        }
      }
      JOINT lCollar
      {
        OFFSET 2.68224 19.2634 -4.8768
        CHANNELS 3 Zrotation Xrotation Yrotation
        JOINT lShldr
        {
          OFFSET 8.77824 -1.95073 1.46304
          CHANNELS 3 Zrotation Xrotation Yrotation
          JOINT lForeArm
          {
            OFFSET 28.1742 -1.7115 0.48768
            CHANNELS 3 Zrotation Xrotation Yrotation
            JOINT lHand
            {
              OFFSET 22.5879 0.773209 7.07136
              CHANNELS 3 Zrotation Xrotation Yrotation
              JOINT lThumb1
              {
                OFFSET 1.2192 -0.487915 3.41376
                CHANNELS 3 Zrotation Xrotation Yrotation
                JOINT lThumb2
                {
                  OFFSET 3.37035 -0.52449 3.41376
                  CHANNELS 3 Zrotation Xrotation Yrotation
                  End Site
                  {
                    OFFSET 1.78271 -1.18214 1.43049
                  }
                }
              }
              JOINT lIndex1
              {
                OFFSET 7.75947 0.938293 5.60832
                CHANNELS 3 Zrotation Xrotation Yrotation
                JOINT lIndex2
                {
                  OFFSET 2.54057 -0.884171 1.56538
                  CHANNELS 3 Zrotation Xrotation Yrotation
                  End Site
                  {
                    OFFSET 1.62519 -0.234802 1.16502
                  }
                }
              }
              JOINT lMid1
              {
                OFFSET 8.24714 1.18213 3.41376
                CHANNELS 3 Zrotation Xrotation Yrotation
                JOINT lMid2
                {
                  OFFSET 3.10165 -0.590103 1.0647
                  CHANNELS 3 Zrotation Xrotation Yrotation
                  End Site
                  {
                    OFFSET 2.48547 -0.328903 0.83742
                  }
                }
              }
              JOINT lRing1
              {
                OFFSET 8.82822 0.546677 1.51678
                CHANNELS 3 Zrotation Xrotation Yrotation
                JOINT lRing2
                {
                  OFFSET 2.60934 -0.819778 -0.0198488
                  CHANNELS 3 Zrotation Xrotation Yrotation
                  End Site
                  {
                    OFFSET 2.33842 -0.294052 0.168128
                  }
                }
              }
              JOINT lPinky1
              {
                OFFSET 8.27202 -0.0477905 -0.4584
                CHANNELS 3 Zrotation Xrotation Yrotation
                JOINT lPinky2
                {
                  OFFSET 1.82734 -0.647385 -0.700984
                  CHANNELS 3 Zrotation Xrotation Yrotation
                  End Site
                  {
                    OFFSET 1.69225 -0.51767 -0.607171
                  }
                }
              }
            }
          }
        }
      }
    }
  }
  JOINT rButtock
  {
    OFFSET -8.77824 4.35084 1.2192
    CHANNELS 3 Zrotation Xrotation Yrotation
    JOINT rThigh
    {
      OFFSET 0 -1.70687 -2.19456
      CHANNELS 3 Zrotation Xrotation Yrotation
      JOINT rShin
      {
        OFFSET 0 -36.8199 0.73152
        CHANNELS 3 Zrotation Xrotation Yrotation
        JOINT rFoot
        {
          OFFSET 0.73152 -45.1104 -5.12064
          CHANNELS 3 Zrotation Xrotation Yrotation
          End Site
          {
            OFFSET -1.1221 -3.69964 12.103
          }
        }
      }
    }
  }
  JOINT lButtock
  {
    OFFSET 8.77824 4.35084 1.2192
    CHANNELS 3 Zrotation Xrotation Yrotation
    JOINT lThigh
    {
      OFFSET 0 -1.70687 -2.19456
      CHANNELS 3 Zrotation Xrotation Yrotation
      JOINT lShin
      {
        OFFSET 0 -36.8199 0.73152
        CHANNELS 3 Zrotation Xrotation Yrotation
        JOINT lFoot
        {
          OFFSET -0.73152 -45.1104 -5.12064
          CHANNELS 3 Zrotation Xrotation Yrotation
          End Site
          {
            OFFSET 1.1221 -3.69964 12.103
          }
        }
      }
    }
  }
}
MOTION
Frames:	5
Frame Time:	0.00833333
0.0 0.0 0.0 0.0 0.0 0.0 0.0 0.0 0.0 0.0 0.0 0.0 0.0 0.0 0.0 0.0 0.0 0.0 0.0 0.0 0.0 0.0 0.0 0.0 0.0 0.0 0.0 0.0 0.0 0.0 0.0 0.0 0.0 0.0 0.0 0.0 0.0 0.0 0.0 0.0 0.0 0.0 0.0 0.0 0.0 0.0 0.0 0.0 0.0 0.0 0.0 0.0 0.0 0.0 0.0 0.0 0.0 0.0 0.0 0.0 0.0 0.0 0.0 0.0 0.0 0.0 0.0 0.0 0.0 0.0 0.0 0.0 0.0 0.0 0.0 0.0 0.0 0.0 0.0 0.0 0.0 0.0 0.0 0.0 0.0 0.0 0.0 0.0 0.0 0.0 0.0 0.0 0.0 0.0 0.0 0.0 0.0 0.0 0.0 0.0 0.0 0.0 0.0 0.0 0.0 0.0 0.0 0.0 0.0 0.0 0.0 0.0 0.0 0.0 0.0 0.0 0.0 0.0 0.0 0.0 0.0 0.0 0.0 0.0 0.0 0.0 0.0 0.0 0.0 0.0 0.0 0.0
38.5525 82.2663 -3.0837 -44.395211 -85.984805 50.52815 0.594625 -1.046486 -38.638923 -0.997632 -2.326125 39.998079 -3.529722 0.94857 -26.373638 3.145313 2.89647 26.122144 0.004239 0.0 0.004403 -0.001445 -0.0 0.003786 2.526023 -18.844063 -3.786794 -163.472963 47.705319 163.0419 2.832379 40.23129 -53.794747 173.128469 -20.017572 143.010518 -172.356012 -10.035613 89.93872 -80.462758 7.24574 27.472904 -108.4267 34.159054 91.741843 1.286507 8.960422 -4.93931 -36.034953 51.723585 29.831711 -176.375919 -42.269819 142.775115 -145.111062 -0.668242 -178.917704 -152.332556 -24.950475 -175.352729 17.321008 60.659711 12.794166 -23.980764 -39.750512 -23.992905 81.707932 68.336504 -84.81877 -13.772305 15.610023 3.441975 19.536227 10.899495 37.027227 -141.430425 -62.139237 -121.677131 173.770576 -11.439843 -89.89252 46.024552 -16.287177 -7.018964 -10.211643 -18.050681 4.56318 64.493328 48.973116 -51.288381 8.304512 20.652954 -5.559934 18.545932 43.014753 -14.977446 -0.000468 0.02258 -0.007672 -9.350852 11.534837 -1.486964 144.858875 11.080233 141.5421 148.133533 13.457174 142.097465 -179.987418 75.749847 -0.008609 178.387807 64.635847 -178.215924 -9.091196 -15.590856 -97.532558 -66.912929 85.215227 -7.789778 -179.987418 75.749847 -0.008609 -179.387787 62.316568 179.308654 -2.758376 -18.169102 -135.740707 -11.081264 1.723421 -35.546984
38.5547 82.205 -3.2305 -44.358123 -85.936045 50.497628 -0.217793 -1.123099 -10.975421 -0.874274 -3.731782 13.814454 -6.499827 10.183243 -91.631111 5.498147 7.851655 91.656538 -0.004599 0.0 -8.6e-05 0.001087 0.0 0.000533 -130.360405 54.596094 134.226252 13.526873 0.077142 -0.103658 66.858229 52.736895 -128.437001 -164.668618 29.690868 136.28325 -1.582978 1.556493 0.264459 -155.142006 -65.504944 117.642213 -173.599691 -52.69299 119.893295 -160.339618 -20.257014 118.654612 -164.6388 -19.283688 144.732751 -25.815003 49.161181 21.347318 -145.121976 0.809797 -179.382285 12.024774 36.621744 -4.848779 -11.660912 -23.131395 -11.069558 10.948426 26.201741 6.071852 0.16522 0.979157 -0.219219 27.543265 60.468685 -24.137021 -128.435379 -2.548974 -153.781779 137.362244 63.33884 -113.705524 78.031163 38.688925 -42.412347 -3.720957 -15.635167 -23.867902 173.602333 -52.692449 -119.892344 -35.303725 -38.351177 7.086452 169.089264 -33.247234 -145.376168 34.847783 54.918586 -29.437272 -0.005077 1.771387 -0.556475 23.514923 72.952054 -36.400443 -0.099052 0.258249 -0.091274 147.757774 13.057204 144.023721 -179.997208 75.748991 -0.002881 176.324565 59.64426 -23.194694 -6.899688 19.017924 12.447949 112.822464 -33.108797 -2.302039 0.003787 -0.000434 0.003787 3.189817 -19.030305 -170.300932 -1.912091 -25.473046 -165.304363 -135.275738 -21.491433 5.236991
38.5547 82.1327 -3.3902 -45.111226 -85.938336 51.248838 0.037961 -1.605416 -11.62115 -0.773983 -5.403026 15.83024 -4.304231 12.730941 -113.641769 3.287248 8.088015 113.571873 -0.000274 -0.0 0.001259 -5.3e-05 0.0 -0.003809 -150.168348 21.535322 155.275597 -39.850126 83.715485 58.620385 -153.12876 50.686005 -140.909692 -5.244928 -23.330338 -5.291729 9.078901 -9.071952 -0.684382 -68.895499 31.879803 59.587142 -138.093078 5.493999 114.614303 -159.290819 -6.396204 118.551527 5.892538 -18.352103 -2.543047 3.102374 0.183253 0.008421 0.001783 0.470333 0.147192 -155.863331 -7.866142 172.796061 12.992433 44.343908 10.757596 -147.022618 8.160821 -142.48533 142.973115 39.431259 -147.389289 -19.005525 -1.051031 8.713726 173.094638 -50.051407 127.261677 7.420684 4.339729 1.880792 -27.451222 -26.099054 -2.267697 124.711193 6.314544 -108.486693 19.17078 24.114383 -13.381158 -104.073282 -62.31498 -52.117096 -173.126016 -66.297977 -137.617705 154.156047 19.982931 -138.43653 145.112049 -0.668002 178.917794 144.987567 -50.804978 167.339689 -3.652437 10.395569 -3.323844 134.949485 -19.808304 132.695638 -0.001843 -0.001956 -0.000921 -4.311586 -23.740912 -126.791915 -32.614022 -7.446391 155.492462 -158.28866 -6.10442 78.001071 -179.9951 75.748761 -0.004324 -170.326286 53.664186 -0.0 -0.850501 31.470775 18.134815 -39.221782 -11.898751 -0.710054
38.5566 82.0597 -3.5604999999999998 -45.561598 -85.869454 51.703173 -0.006106 -1.850342 -5.766387 -1.092618 -6.484113 10.899543 14.223863 4.78545 92.406184 3.66367 11.671694 -95.169852 0.001774 -0.0 -0.005184 0.001193 0.0 0.000471 -151.972497 14.763784 157.370486 -148.166977 -75.782152 -169.78842 164.030979 42.197974 88.561449 -160.142999 22.4672 135.297583 -177.74791 -15.324035 89.570055 -152.915631 5.742555 81.802703 -173.762632 -52.873012 119.824234 -54.802 56.157425 42.679001 -22.005409 41.040805 17.007838 -163.395981 -5.58952 143.379947 -145.119978 0.309519 -179.226907 11.188867 13.761419 -7.373463 32.008995 83.321201 6.23541 -155.700217 35.932324 -147.051662 80.16629 68.372246 -83.260697 -91.706714 81.485357 87.533546 169.917092 -14.604394 119.587356 6.563388 -3.001277 2.716925 177.565507 -15.150649 -89.590624 3.64934 -55.316567 -3.305502 151.352278 -17.158363 -121.133829 87.791066 56.54193 -69.28695 -6.533623 -20.414839 2.718131 -10.805875 -23.477328 1.557433 72.349678 72.976596 -90.217123 50.235715 -81.581178 67.131038 -32.655676 83.587015 -5.6872 81.380914 -53.54711 79.915555 -0.006326 5.4e-05 -0.006326 -6.762814 -26.946201 -87.916307 -47.244451 19.651825 -125.778622 -109.299141 20.420304 -166.189649 0.004104 0.000721 0.002052 9.453011 -24.778452 0.0 -20.902418 34.243238 -28.184465 15.319162 -5.261103 66.642484
